<?xml version="1.0" encoding="UTF-8"?><svg xmlns="http://www.w3.org/2000/svg" viewBox="0 0 1171.51 249.88"><defs><style>.d{fill:#fff;}</style></defs><g id="a"/><g id="b"><g id="c"><g><path class="d" d="M152.3,18.21c16.51,0,29.62,4.01,39.34,12.02,11.66,9.72,18.09,24.29,19.31,43.71l14.94,1.09c2.91-19.42,7.4-39.1,13.48-59.01C208.04,5.83,181.45,.73,159.59,.73c-9.74,0-19.03,.75-27.88,2.22V20.19c6.45-1.31,13.31-1.97,20.59-1.97Z"/><path class="d" d="M237.91,174.12c-10.44,18.21-21.8,31.45-34.06,39.71-12.27,8.26-27.14,12.38-44.62,12.38-28.41,0-50.45-9.89-66.11-29.69-15.66-19.79-23.5-47.78-23.5-83.96,0-22.09,2.97-39.64,8.92-52.64,1.65-3.6,1.59-4.98,3.79-8.14-11.63,.6-23.27-.16-34.9-.19-16.64,20.84-22.98,45.05-22.98,76.63,0,37.88,11.9,67.63,35.7,89.25,23.8,21.62,53.06,32.42,87.79,32.42s59.49-8.74,79.41-26.23c9.95-19.67,16.39-34.72,19.31-45.17l-8.74-4.37Z"/><path class="d" d="M266.68,18.21l.73-13.11c38.12,2.91,74.31,2.91,108.55,0l.73,13.11c-12.39,1.95-23.68,5.59-33.88,10.93-1.95,60.96-1.95,107.34,0,139.15,1.21,18.7,7.83,33.21,19.85,43.53,12.02,10.32,27.87,15.48,47.54,15.48,13.11,0,25.37-4.01,36.79-12.02,10.68-7.77,16.88-23.92,18.58-48.45,2.42-30.35,2.19-76.25-.73-137.69-11.17-5.83-24.17-9.47-38.98-10.93l.73-13.11c35.45,2.67,68.48,2.67,99.08,0l.73,13.11c-13.36,1.95-24.29,5.59-32.78,10.93-.49,13.11-.97,40.43-1.46,81.96,0,36.92-.61,60.83-1.82,71.76-2.43,22.1-13.48,39.1-33.15,51-16.76,10.2-36.79,15.3-60.1,15.3-29.63,0-53.18-7.29-70.67-21.86-17.48-14.57-25.86-33.75-25.13-57.55,1.21-54.64,1.21-101.5,0-140.61-8.99-5.1-20.52-8.74-34.6-10.93Z"/><path class="d" d="M736.58,206.54c10.93,13.6,27.19,21.74,48.81,24.41l-.73,13.11c-29.14,3.4-50.88,1.82-65.2-4.74-12.38-5.58-21.74-13.84-28.05-24.77-15.3-28.17-30.36-52.57-45.17-73.22-1.22,.25-3.77,.36-7.65,.36h-20.04c0,25.5,.36,51.61,1.09,78.32,8.25,5.1,19.79,8.74,34.61,10.93l-.73,13.11c-36.67-3.4-73.46-3.4-110.37,0l-.73-13.11c15.3-2.42,27.32-6.07,36.06-10.93,1.46-63.62,1.46-127.25,0-190.87-8.99-5.1-20.52-8.74-34.61-10.93l.73-13.11c22.34,1.7,39.94,2.55,52.82,2.55,11.41-.24,29.99-1.33,55.73-3.28,22.58-1.46,41.16,3.28,55.73,14.21,14.57,10.93,21.86,25.86,21.86,44.8,0,24.77-12.38,45.05-37.16,60.83l-7.65,4.37c14.08,26.96,30.96,52.94,50.63,77.95Zm-102.36-82.69c17.72,0,31.45-3.88,41.16-11.66,8.98-7.29,13.48-19.18,13.48-35.7,0-36.18-16.03-54.27-48.08-54.27-8.74,0-15.79,1.09-21.13,3.28-.73,31.82-1.09,64.48-1.09,97.99,1.7,0,4.55,.06,8.56,.18,4.01,.12,6.38,.18,7.1,.18Z"/><path class="d" d="M791.94,18.21l.73-13.11c37.88,3.16,75.52,3.16,112.92,0l.73,13.11c-12.63,1.7-24.77,5.34-36.43,10.93-1.46,63.63-1.46,127.25,0,190.87,11.41,5.59,24.04,9.23,37.88,10.93l-.73,13.11c-38.61-2.91-77.22-2.91-115.84,0l-.73-13.11c13.84-1.7,26.47-5.34,37.88-10.93,1.46-63.62,1.46-127.25,0-190.87-11.66-5.58-23.8-9.23-36.43-10.93Z"/><path class="d" d="M1048.02,0c37.88,0,67.87,11.78,89.97,35.33,22.34,23.56,33.51,53.91,33.51,91.07,0,29.14-6.68,52.94-20.03,71.4-10.69,16.52-25.01,29.2-42.98,38.07-17.97,8.86-38.25,13.3-60.83,13.3-37.88,0-68-11.66-90.34-34.97-22.1-23.07-33.15-53.42-33.15-91.07,0-28.41,6.68-52.33,20.04-71.76,10.68-16.27,25.07-28.9,43.17-37.88,18.09-8.98,38.3-13.48,60.65-13.48Zm8.01,229.49c16.51,0,30.23-4.01,41.16-12.02,19.18-13.11,28.78-38.12,28.78-75.04s-7.53-66.78-22.58-89.61c-14.82-22.82-36.19-34.24-64.11-34.24-15.54,0-29.02,4.13-40.43,12.39-19.43,13.11-29.14,38.13-29.14,75.04s7.77,66.79,23.31,89.61c15.54,22.58,36.55,33.88,63.02,33.88Z"/></g><g><path class="d" d="M1.51,3.97l.44-.31c.96,.46,1.84,.71,2.64,.75,1.72,.13,3.65,.21,5.79,.25,1.17,.04,4.42,.06,9.75,.06s8.64-.02,9.81-.06c2.1-.04,4.36-.13,6.79-.25,1.26-.13,2.33-.38,3.21-.75l.38,.38c-.71,3.36-1.26,7.19-1.64,11.51l-2.45-.25c-.08-1.22-.34-2.52-.75-3.9-.38-1.34-.82-2.18-1.32-2.52-1.22-.63-3.02-.88-5.41-.75-.96,0-1.59,.02-1.89,.06-.25,0-.63,.03-1.13,.09-.5,.06-.96,.12-1.38,.16l-.63,.06c-.25,11.11-.25,22.14,0,33.08,2.01,.96,4.8,1.59,8.37,1.89l-.13,2.26c-7.88-.42-15.75-.42-23.59,0l-.13-2.26c3.52-.33,6.29-.96,8.3-1.89,.25-10.94,.25-21.97,0-33.08-5.54-.5-8.97-.38-10.31,.38-1.34,.71-2.56,2.96-3.65,6.73l-2.58-.31C.92,9.67,1.43,5.9,1.51,3.97Z"/><path class="d" d="M85.22,41.58c1.64,.92,3.69,1.55,6.16,1.89l-.13,2.26c-6.37-.59-12.79-.59-19.25,0l-.13-2.26c1.97-.25,4.03-.88,6.16-1.89,.13-4.91,.19-10.13,.19-15.66-7.13-.34-14.28-.34-21.45,0,0,5.53,.06,10.75,.19,15.66,2.1,1.01,4.15,1.64,6.16,1.89l-.13,2.26c-6.42-.54-12.85-.54-19.31,0l-.13-2.26c2.64-.42,4.72-1.05,6.23-1.89,.25-10.99,.25-21.97,0-32.96-1.55-.88-3.54-1.51-5.98-1.89l.13-2.26c6.42,.59,12.52,.59,18.3,0l.13,2.26c-1.85,.34-3.65,.97-5.41,1.89-.13,4.28-.19,8.76-.19,13.46,7.17,.34,14.32,.34,21.45,0,0-4.7-.06-9.18-.19-13.46-1.76-.92-3.56-1.55-5.41-1.89l.13-2.26c5.83,.55,11.91,.55,18.24,0l.13,2.26c-2.22,.29-4.19,.92-5.91,1.89-.25,10.99-.25,21.97,0,32.96Z"/><path class="d" d="M126.61,33.59l2.77,.82c-1.8,5.45-2.94,9.23-3.4,11.32-3.73-.25-9.04-.38-15.91-.38s-11.95,.13-15.22,.38l-.13-2.26c2.64-.42,4.72-1.05,6.23-1.89,.25-10.99,.25-21.97,0-32.96-1.55-.88-3.54-1.51-5.98-1.89l.13-2.26c2.64,.29,8.07,.4,16.29,.31,7.84-.04,12.71-.36,14.59-.94l.44,.44c-.67,3.69-1.13,7.02-1.38,10l-2.33-.13c-.21-2.98-.75-4.74-1.64-5.28-1.17-.67-3.38-.96-6.6-.88-3.19,.08-5.31,.4-6.35,.94-.13,4.4-.19,8.95-.19,13.65,2.68,.17,6.48,.15,11.38-.06,.71-1.13,1.28-2.66,1.7-4.59l2.26,.13c-.34,4.19-.34,8.6,0,13.21l-2.26,.13c-.38-2.14-.94-3.79-1.7-4.97-4.86-.21-8.66-.23-11.38-.06,0,4.86,.06,9.65,.19,14.34,1.51,.67,3.9,1.03,7.17,1.07,3.35,.08,5.85-.36,7.48-1.32,.75-.54,1.4-1.29,1.95-2.23,.54-.94,1.17-2.48,1.89-4.62Z"/></g></g></g></svg>